<?xml version="1.0" encoding="utf-8"?>
<!-- Generator: Adobe Illustrator 16.0.0, SVG Export Plug-In . SVG Version: 6.00 Build 0)  -->
<!DOCTYPE svg PUBLIC "-//W3C//DTD SVG 1.1//EN" "http://www.w3.org/Graphics/SVG/1.1/DTD/svg11.dtd">
<svg version="1.1" id="Layer_1" xmlns="http://www.w3.org/2000/svg" xmlns:xlink="http://www.w3.org/1999/xlink" x="0px" y="0px"
	 width="350px" height="250px" viewBox="0 0 350 250" enable-background="new 0 0 350 250" xml:space="preserve">
<g>
	<g>
		<path fill="#FFFFFF" d="M183,0C114.075,0,58,56.075,58,125c0,68.926,56.075,125,125,125c68.926,0,125-56.074,125-125
			C308,56.075,251.926,0,183,0z M183,236.984c-61.749,0-111.985-50.236-111.985-111.984c0-61.749,50.236-111.985,111.985-111.985
			c61.748,0,111.984,50.236,111.984,111.985C294.984,186.748,244.748,236.984,183,236.984z"/>
	</g>
</g>
<g>
	<g>
		<path fill="#FFFFFF" d="M223.392,56.194c-3.097-1.822-7.087-0.787-8.908,2.311s-0.788,7.086,2.312,8.908
			c20.334,11.959,32.967,34.025,32.967,57.586c0,36.813-29.949,66.762-66.762,66.762c-36.813,0-66.763-29.949-66.763-66.762
			c0-23.562,12.632-45.627,32.967-57.586c3.098-1.821,4.133-5.81,2.311-8.908c-1.821-3.098-5.81-4.132-8.908-2.311
			C118.314,70.482,103.223,96.847,103.223,125c0,43.99,35.788,79.777,79.777,79.777c43.99,0,79.777-35.787,79.776-79.777
			C262.776,96.847,247.686,70.482,223.392,56.194z"/>
	</g>
</g>
<g>
	<g>
		<path fill="#FFFFFF" d="M183,36.539c-3.594,0-6.508,2.914-6.508,6.508V125c0,3.594,2.914,6.508,6.508,6.508
			s6.508-2.914,6.508-6.508V43.047C189.508,39.454,186.594,36.539,183,36.539z"/>
	</g>
</g>
</svg>
